{
 "cells": [
  {
   "cell_type": "code",
   "execution_count": 1,
   "id": "e8733416-c4e4-4dcb-8d61-5a6918dfe0df",
   "metadata": {},
   "outputs": [],
   "source": [
    "import utils\n",
    "\n",
    "# Ensure ffmpeg is installed\n",
    "\n"
   ]
  },
  {
   "cell_type": "code",
   "execution_count": 2,
   "id": "9caefc19-4398-49f3-98a2-c4e1d635eb0d",
   "metadata": {},
   "outputs": [],
   "source": [
    "upload_id = \"003\"\n",
    "upload_dir = \"/mnt/g/uploads/\"\n",
    "models_dir = \"/mnt/g/models/\"\n",
    "artifacts_dir = \"/mnt/g/song_artifacts/\"\n",
    "model_filename = \"0.pth\"\n",
    "# TODO check and if not present make folders\n",
    "# songslice\n",
    "# videos\n",
    "# power\n",
    "# mels\n",
    "# chroma\n",
    "# mfcc\n",
    "\n",
    "\n",
    "frame_size = 4096\n",
    "hop_size = 512\n",
    "fft_window = 512\n",
    "signal_duration = 14\n"
   ]
  },
  {
   "cell_type": "code",
   "execution_count": 3,
   "id": "6ef201d9-04a2-4b56-bedc-f52460072d5a",
   "metadata": {},
   "outputs": [
    {
     "name": "stdout",
     "output_type": "stream",
     "text": [
      "Upload couldn't be found\n",
      "Upload couldn't be found\n",
      "/mnt/g/uploads/Seek & Destroy (Remastered)-003.mp3\n"
     ]
    }
   ],
   "source": [
    "# Execution\n",
    "filename = utils.find_file_by_upload_id(upload_id, upload_dir)\n",
    "print(filename)"
   ]
  },
  {
   "cell_type": "code",
   "execution_count": 4,
   "id": "8de360f9-2dff-47a3-99c0-c6e1f5d7fec7",
   "metadata": {},
   "outputs": [],
   "source": [
    "import librosa as li\n",
    "import utils\n",
    "\n",
    "# Execution\n",
    "signal, sr = utils.extract_signal_for_inference(filename)\n",
    "\n",
    "# Storing transformed signal\n",
    "song_location = utils.generate_audio_from_frames(f\"generated_track_{upload_id}\", signal, sr, artifacts_dir)\n",
    "\n",
    "# Frames indexes for generation of data\n",
    "frames = utils.split_signal_to_frame_indexes(frame_size, hop_size, signal)"
   ]
  },
  {
   "cell_type": "code",
   "execution_count": 5,
   "id": "909ba97b-7cde-4bd1-a579-1cc704f7439b",
   "metadata": {},
   "outputs": [
    {
     "name": "stderr",
     "output_type": "stream",
     "text": [
      "ffmpeg version 6.1.1-3ubuntu5 Copyright (c) 2000-2023 the FFmpeg developers\n",
      "  built with gcc 13 (Ubuntu 13.2.0-23ubuntu3)\n",
      "  configuration: --prefix=/usr --extra-version=3ubuntu5 --toolchain=hardened --libdir=/usr/lib/x86_64-linux-gnu --incdir=/usr/include/x86_64-linux-gnu --arch=amd64 --enable-gpl --disable-stripping --disable-omx --enable-gnutls --enable-libaom --enable-libass --enable-libbs2b --enable-libcaca --enable-libcdio --enable-libcodec2 --enable-libdav1d --enable-libflite --enable-libfontconfig --enable-libfreetype --enable-libfribidi --enable-libglslang --enable-libgme --enable-libgsm --enable-libharfbuzz --enable-libmp3lame --enable-libmysofa --enable-libopenjpeg --enable-libopenmpt --enable-libopus --enable-librubberband --enable-libshine --enable-libsnappy --enable-libsoxr --enable-libspeex --enable-libtheora --enable-libtwolame --enable-libvidstab --enable-libvorbis --enable-libvpx --enable-libwebp --enable-libx265 --enable-libxml2 --enable-libxvid --enable-libzimg --enable-openal --enable-opencl --enable-opengl --disable-sndio --enable-libvpl --disable-libmfx --enable-libdc1394 --enable-libdrm --enable-libiec61883 --enable-chromaprint --enable-frei0r --enable-ladspa --enable-libbluray --enable-libjack --enable-libpulse --enable-librabbitmq --enable-librist --enable-libsrt --enable-libssh --enable-libsvtav1 --enable-libx264 --enable-libzmq --enable-libzvbi --enable-lv2 --enable-sdl2 --enable-libplacebo --enable-librav1e --enable-pocketsphinx --enable-librsvg --enable-libjxl --enable-shared\n",
      "  libavutil      58. 29.100 / 58. 29.100\n",
      "  libavcodec     60. 31.102 / 60. 31.102\n",
      "  libavformat    60. 16.100 / 60. 16.100\n",
      "  libavdevice    60.  3.100 / 60.  3.100\n",
      "  libavfilter     9. 12.100 /  9. 12.100\n",
      "  libswscale      7.  5.100 /  7.  5.100\n",
      "  libswresample   4. 12.100 /  4. 12.100\n",
      "  libpostproc    57.  3.100 / 57.  3.100\n",
      "Input #0, image2, from '/mnt/g/song_artifacts/mels/003-%d.png':\n",
      "  Duration: 00:00:13.99, start: 0.000000, bitrate: N/A\n",
      "  Stream #0:0: Video: png, rgba(pc, gbr/unknown/unknown), 640x480 [SAR 3937:3937 DAR 4:3], 5.36 fps, 5.36 tbr, 5.36 tbn\n",
      "[aist#1:0/pcm_s16le @ 0x562a91bd3640] Guessed Channel Layout: mono\n",
      "Input #1, wav, from '/mnt/g/song_artifacts/slices/generated_track_003.wav':\n",
      "  Duration: 00:00:14.00, bitrate: 352 kb/s\n",
      "  Stream #1:0: Audio: pcm_s16le ([1][0][0][0] / 0x0001), 22050 Hz, 1 channels, s16, 352 kb/s\n",
      "Stream mapping:\n",
      "  Stream #0:0 -> #0:0 (png (native) -> h264 (libx264))\n",
      "  Stream #1:0 -> #0:1 (pcm_s16le (native) -> aac (native))\n",
      "Press [q] to stop, [?] for help\n",
      "[in#0/image2 @ 0x562a91b68380] Thread message queue blocking; consider raising the thread_queue_size option (current value: 8)\n",
      "[libx264 @ 0x562a91c2a100] using SAR=1/1\n",
      "[libx264 @ 0x562a91c2a100] using cpu capabilities: MMX2 SSE2Fast SSSE3 SSE4.2 AVX FMA3 BMI2 AVX2 AVX512\n",
      "[libx264 @ 0x562a91c2a100] profile High, level 2.2, 4:2:0, 8-bit\n",
      "[libx264 @ 0x562a91c2a100] 264 - core 164 r3108 31e19f9 - H.264/MPEG-4 AVC codec - Copyleft 2003-2023 - http://www.videolan.org/x264.html - options: cabac=1 ref=3 deblock=1:0:0 analyse=0x3:0x113 me=hex subme=7 psy=1 psy_rd=1.00:0.00 mixed_ref=1 me_range=16 chroma_me=1 trellis=1 8x8dct=1 cqm=0 deadzone=21,11 fast_pskip=1 chroma_qp_offset=-2 threads=15 lookahead_threads=2 sliced_threads=0 nr=0 decimate=1 interlaced=0 bluray_compat=0 constrained_intra=0 bframes=3 b_pyramid=2 b_adapt=1 b_bias=0 direct=1 weightb=1 open_gop=0 weightp=2 keyint=250 keyint_min=5 scenecut=40 intra_refresh=0 rc_lookahead=40 rc=crf mbtree=1 crf=23.0 qcomp=0.60 qpmin=0 qpmax=69 qpstep=4 ip_ratio=1.40 aq=1:1.00\n",
      "[aac @ 0x562a91c91340] Too many bits 8916.462585 > 6144 per frame requested, clamping to max\n",
      "Output #0, mp4, to '/mnt/g/song_artifacts/videos/mel-003.mp4':\n",
      "  Metadata:\n",
      "    encoder         : Lavf60.16.100\n",
      "  Stream #0:0: Video: h264 (avc1 / 0x31637661), yuv420p(tv, progressive), 640x480 [SAR 1:1 DAR 4:3], q=2-31, 5.36 fps, 17152 tbn\n",
      "    Metadata:\n",
      "      encoder         : Lavc60.31.102 libx264\n",
      "    Side data:\n",
      "      cpb: bitrate max/min/avg: 0/0/0 buffer size: 0 vbv_delay: N/A\n",
      "  Stream #0:1: Audio: aac (LC) (mp4a / 0x6134706D), 22050 Hz, mono, fltp, 132 kb/s\n",
      "    Metadata:\n",
      "      encoder         : Lavc60.31.102 aac\n",
      "[out#0/mp4 @ 0x562a91bc4f80] video:299kB audio:196kB subtitle:0kB other streams:0kB global headers:0kB muxing overhead: 0.688275%\n",
      "frame=   75 fps=0.0 q=-1.0 Lsize=     498kB time=00:00:13.93 bitrate= 292.7kbits/s speed=  44x    \n",
      "[libx264 @ 0x562a91c2a100] frame I:1     Avg QP:16.68  size: 13932\n",
      "[libx264 @ 0x562a91c2a100] frame P:74    Avg QP:20.08  size:  3933\n",
      "[libx264 @ 0x562a91c2a100] mb I  I16..4: 48.9% 20.7% 30.4%\n",
      "[libx264 @ 0x562a91c2a100] mb P  I16..4: 24.9%  4.5% 14.1%  P16..4:  4.9%  1.9%  0.3%  0.0%  0.0%    skip:49.4%\n",
      "[libx264 @ 0x562a91c2a100] 8x8 transform intra:10.7% inter:77.6%\n",
      "[libx264 @ 0x562a91c2a100] coded y,uvDC,uvAC intra: 19.0% 71.9% 49.8% inter: 4.8% 6.9% 1.5%\n",
      "[libx264 @ 0x562a91c2a100] i16 v,h,dc,p: 23% 75%  1%  0%\n",
      "[libx264 @ 0x562a91c2a100] i8 v,h,dc,ddl,ddr,vr,hd,vl,hu: 33% 37% 24%  3%  0%  0%  0%  0%  2%\n",
      "[libx264 @ 0x562a91c2a100] i4 v,h,dc,ddl,ddr,vr,hd,vl,hu: 42% 48%  9%  0%  0%  0%  0%  0%  0%\n",
      "[libx264 @ 0x562a91c2a100] i8c dc,h,v,p: 17% 60% 22%  1%\n",
      "[libx264 @ 0x562a91c2a100] Weighted P-Frames: Y:0.0% UV:0.0%\n",
      "[libx264 @ 0x562a91c2a100] ref P L0: 27.3%  8.7% 31.3% 32.7%\n",
      "[libx264 @ 0x562a91c2a100] kb/s:174.38\n",
      "[aac @ 0x562a91c91340] Qavg: 62330.250\n",
      "ffmpeg version 6.1.1-3ubuntu5 Copyright (c) 2000-2023 the FFmpeg developers\n",
      "  built with gcc 13 (Ubuntu 13.2.0-23ubuntu3)\n",
      "  configuration: --prefix=/usr --extra-version=3ubuntu5 --toolchain=hardened --libdir=/usr/lib/x86_64-linux-gnu --incdir=/usr/include/x86_64-linux-gnu --arch=amd64 --enable-gpl --disable-stripping --disable-omx --enable-gnutls --enable-libaom --enable-libass --enable-libbs2b --enable-libcaca --enable-libcdio --enable-libcodec2 --enable-libdav1d --enable-libflite --enable-libfontconfig --enable-libfreetype --enable-libfribidi --enable-libglslang --enable-libgme --enable-libgsm --enable-libharfbuzz --enable-libmp3lame --enable-libmysofa --enable-libopenjpeg --enable-libopenmpt --enable-libopus --enable-librubberband --enable-libshine --enable-libsnappy --enable-libsoxr --enable-libspeex --enable-libtheora --enable-libtwolame --enable-libvidstab --enable-libvorbis --enable-libvpx --enable-libwebp --enable-libx265 --enable-libxml2 --enable-libxvid --enable-libzimg --enable-openal --enable-opencl --enable-opengl --disable-sndio --enable-libvpl --disable-libmfx --enable-libdc1394 --enable-libdrm --enable-libiec61883 --enable-chromaprint --enable-frei0r --enable-ladspa --enable-libbluray --enable-libjack --enable-libpulse --enable-librabbitmq --enable-librist --enable-libsrt --enable-libssh --enable-libsvtav1 --enable-libx264 --enable-libzmq --enable-libzvbi --enable-lv2 --enable-sdl2 --enable-libplacebo --enable-librav1e --enable-pocketsphinx --enable-librsvg --enable-libjxl --enable-shared\n",
      "  libavutil      58. 29.100 / 58. 29.100\n",
      "  libavcodec     60. 31.102 / 60. 31.102\n",
      "  libavformat    60. 16.100 / 60. 16.100\n",
      "  libavdevice    60.  3.100 / 60.  3.100\n",
      "  libavfilter     9. 12.100 /  9. 12.100\n",
      "  libswscale      7.  5.100 /  7.  5.100\n",
      "  libswresample   4. 12.100 /  4. 12.100\n",
      "  libpostproc    57.  3.100 / 57.  3.100\n",
      "Input #0, image2, from '/mnt/g/song_artifacts/power/003-%d.png':\n",
      "  Duration: 00:00:13.99, start: 0.000000, bitrate: N/A\n",
      "  Stream #0:0: Video: png, rgba(pc, gbr/unknown/unknown), 640x480 [SAR 3937:3937 DAR 4:3], 5.36 fps, 5.36 tbr, 5.36 tbn\n",
      "[aist#1:0/pcm_s16le @ 0x558ed1239b00] Guessed Channel Layout: mono\n",
      "Input #1, wav, from '/mnt/g/song_artifacts/slices/generated_track_003.wav':\n",
      "  Duration: 00:00:14.00, bitrate: 352 kb/s\n",
      "  Stream #1:0: Audio: pcm_s16le ([1][0][0][0] / 0x0001), 22050 Hz, 1 channels, s16, 352 kb/s\n",
      "Stream mapping:\n",
      "  Stream #0:0 -> #0:0 (png (native) -> h264 (libx264))\n",
      "  Stream #1:0 -> #0:1 (pcm_s16le (native) -> aac (native))\n",
      "Press [q] to stop, [?] for help\n",
      "[in#0/image2 @ 0x558ed1155380] Thread message queue blocking; consider raising the thread_queue_size option (current value: 8)\n",
      "[libx264 @ 0x558ed1240840] using SAR=1/1\n",
      "[libx264 @ 0x558ed1240840] using cpu capabilities: MMX2 SSE2Fast SSSE3 SSE4.2 AVX FMA3 BMI2 AVX2 AVX512\n",
      "[libx264 @ 0x558ed1240840] profile High, level 2.2, 4:2:0, 8-bit\n",
      "[libx264 @ 0x558ed1240840] 264 - core 164 r3108 31e19f9 - H.264/MPEG-4 AVC codec - Copyleft 2003-2023 - http://www.videolan.org/x264.html - options: cabac=1 ref=3 deblock=1:0:0 analyse=0x3:0x113 me=hex subme=7 psy=1 psy_rd=1.00:0.00 mixed_ref=1 me_range=16 chroma_me=1 trellis=1 8x8dct=1 cqm=0 deadzone=21,11 fast_pskip=1 chroma_qp_offset=-2 threads=15 lookahead_threads=2 sliced_threads=0 nr=0 decimate=1 interlaced=0 bluray_compat=0 constrained_intra=0 bframes=3 b_pyramid=2 b_adapt=1 b_bias=0 direct=1 weightb=1 open_gop=0 weightp=2 keyint=250 keyint_min=5 scenecut=40 intra_refresh=0 rc_lookahead=40 rc=crf mbtree=1 crf=23.0 qcomp=0.60 qpmin=0 qpmax=69 qpstep=4 ip_ratio=1.40 aq=1:1.00\n",
      "[aac @ 0x558ed126d000] Too many bits 8916.462585 > 6144 per frame requested, clamping to max\n",
      "Output #0, mp4, to '/mnt/g/song_artifacts/videos/power-003.mp4':\n",
      "  Metadata:\n",
      "    encoder         : Lavf60.16.100\n",
      "  Stream #0:0: Video: h264 (avc1 / 0x31637661), yuv420p(tv, progressive), 640x480 [SAR 1:1 DAR 4:3], q=2-31, 5.36 fps, 17152 tbn\n",
      "    Metadata:\n",
      "      encoder         : Lavc60.31.102 libx264\n",
      "    Side data:\n",
      "      cpb: bitrate max/min/avg: 0/0/0 buffer size: 0 vbv_delay: N/A\n",
      "  Stream #0:1: Audio: aac (LC) (mp4a / 0x6134706D), 22050 Hz, mono, fltp, 132 kb/s\n",
      "    Metadata:\n",
      "      encoder         : Lavc60.31.102 aac\n",
      "[out#0/mp4 @ 0x558ed115fc40] video:405kB audio:196kB subtitle:0kB other streams:0kB global headers:0kB muxing overhead: 0.566150%\n",
      "frame=   75 fps=0.0 q=-1.0 Lsize=     605kB time=00:00:13.93 bitrate= 355.5kbits/s speed=44.1x    \n",
      "[libx264 @ 0x558ed1240840] frame I:1     Avg QP:18.89  size: 15947\n",
      "[libx264 @ 0x558ed1240840] frame P:74    Avg QP:21.29  size:  5382\n",
      "[libx264 @ 0x558ed1240840] mb I  I16..4: 37.8% 27.6% 34.7%\n",
      "[libx264 @ 0x558ed1240840] mb P  I16..4: 24.4%  2.8% 16.5%  P16..4:  4.2%  2.4%  0.4%  0.0%  0.0%    skip:49.3%\n",
      "[libx264 @ 0x558ed1240840] 8x8 transform intra:7.1% inter:66.0%\n",
      "[libx264 @ 0x558ed1240840] coded y,uvDC,uvAC intra: 19.1% 75.7% 57.1% inter: 6.3% 9.1% 4.1%\n",
      "[libx264 @ 0x558ed1240840] i16 v,h,dc,p: 18% 81%  1%  0%\n",
      "[libx264 @ 0x558ed1240840] i8 v,h,dc,ddl,ddr,vr,hd,vl,hu: 37% 37% 21%  4%  0%  0%  0%  0%  1%\n",
      "[libx264 @ 0x558ed1240840] i4 v,h,dc,ddl,ddr,vr,hd,vl,hu: 43% 49%  7%  0%  0%  0%  0%  0%  0%\n",
      "[libx264 @ 0x558ed1240840] i8c dc,h,v,p: 12% 64% 23%  1%\n",
      "[libx264 @ 0x558ed1240840] Weighted P-Frames: Y:0.0% UV:0.0%\n",
      "[libx264 @ 0x558ed1240840] ref P L0: 30.5% 10.5% 30.3% 28.7%\n",
      "[libx264 @ 0x558ed1240840] kb/s:236.83\n",
      "[aac @ 0x558ed126d000] Qavg: 62330.250\n",
      "ffmpeg version 6.1.1-3ubuntu5 Copyright (c) 2000-2023 the FFmpeg developers\n",
      "  built with gcc 13 (Ubuntu 13.2.0-23ubuntu3)\n",
      "  configuration: --prefix=/usr --extra-version=3ubuntu5 --toolchain=hardened --libdir=/usr/lib/x86_64-linux-gnu --incdir=/usr/include/x86_64-linux-gnu --arch=amd64 --enable-gpl --disable-stripping --disable-omx --enable-gnutls --enable-libaom --enable-libass --enable-libbs2b --enable-libcaca --enable-libcdio --enable-libcodec2 --enable-libdav1d --enable-libflite --enable-libfontconfig --enable-libfreetype --enable-libfribidi --enable-libglslang --enable-libgme --enable-libgsm --enable-libharfbuzz --enable-libmp3lame --enable-libmysofa --enable-libopenjpeg --enable-libopenmpt --enable-libopus --enable-librubberband --enable-libshine --enable-libsnappy --enable-libsoxr --enable-libspeex --enable-libtheora --enable-libtwolame --enable-libvidstab --enable-libvorbis --enable-libvpx --enable-libwebp --enable-libx265 --enable-libxml2 --enable-libxvid --enable-libzimg --enable-openal --enable-opencl --enable-opengl --disable-sndio --enable-libvpl --disable-libmfx --enable-libdc1394 --enable-libdrm --enable-libiec61883 --enable-chromaprint --enable-frei0r --enable-ladspa --enable-libbluray --enable-libjack --enable-libpulse --enable-librabbitmq --enable-librist --enable-libsrt --enable-libssh --enable-libsvtav1 --enable-libx264 --enable-libzmq --enable-libzvbi --enable-lv2 --enable-sdl2 --enable-libplacebo --enable-librav1e --enable-pocketsphinx --enable-librsvg --enable-libjxl --enable-shared\n",
      "  libavutil      58. 29.100 / 58. 29.100\n",
      "  libavcodec     60. 31.102 / 60. 31.102\n",
      "  libavformat    60. 16.100 / 60. 16.100\n",
      "  libavdevice    60.  3.100 / 60.  3.100\n",
      "  libavfilter     9. 12.100 /  9. 12.100\n",
      "  libswscale      7.  5.100 /  7.  5.100\n",
      "  libswresample   4. 12.100 /  4. 12.100\n",
      "  libpostproc    57.  3.100 / 57.  3.100\n",
      "Input #0, image2, from '/mnt/g/song_artifacts/mfcc/003-%d.png':\n",
      "  Duration: 00:00:13.99, start: 0.000000, bitrate: N/A\n",
      "  Stream #0:0: Video: png, rgba(pc, gbr/unknown/unknown), 640x480 [SAR 3937:3937 DAR 4:3], 5.36 fps, 5.36 tbr, 5.36 tbn\n",
      "[aist#1:0/pcm_s16le @ 0x55ee7ae64bc0] Guessed Channel Layout: mono\n",
      "Input #1, wav, from '/mnt/g/song_artifacts/slices/generated_track_003.wav':\n",
      "  Duration: 00:00:14.00, bitrate: 352 kb/s\n",
      "  Stream #1:0: Audio: pcm_s16le ([1][0][0][0] / 0x0001), 22050 Hz, 1 channels, s16, 352 kb/s\n",
      "Stream mapping:\n",
      "  Stream #0:0 -> #0:0 (png (native) -> h264 (libx264))\n",
      "  Stream #1:0 -> #0:1 (pcm_s16le (native) -> aac (native))\n",
      "Press [q] to stop, [?] for help\n",
      "[in#0/image2 @ 0x55ee7ae01380] Thread message queue blocking; consider raising the thread_queue_size option (current value: 8)\n",
      "[libx264 @ 0x55ee7ae573c0] using SAR=1/1\n",
      "[libx264 @ 0x55ee7ae573c0] using cpu capabilities: MMX2 SSE2Fast SSSE3 SSE4.2 AVX FMA3 BMI2 AVX2 AVX512\n",
      "[libx264 @ 0x55ee7ae573c0] profile High, level 2.2, 4:2:0, 8-bit\n",
      "[libx264 @ 0x55ee7ae573c0] 264 - core 164 r3108 31e19f9 - H.264/MPEG-4 AVC codec - Copyleft 2003-2023 - http://www.videolan.org/x264.html - options: cabac=1 ref=3 deblock=1:0:0 analyse=0x3:0x113 me=hex subme=7 psy=1 psy_rd=1.00:0.00 mixed_ref=1 me_range=16 chroma_me=1 trellis=1 8x8dct=1 cqm=0 deadzone=21,11 fast_pskip=1 chroma_qp_offset=-2 threads=15 lookahead_threads=2 sliced_threads=0 nr=0 decimate=1 interlaced=0 bluray_compat=0 constrained_intra=0 bframes=3 b_pyramid=2 b_adapt=1 b_bias=0 direct=1 weightb=1 open_gop=0 weightp=2 keyint=250 keyint_min=5 scenecut=40 intra_refresh=0 rc_lookahead=40 rc=crf mbtree=1 crf=23.0 qcomp=0.60 qpmin=0 qpmax=69 qpstep=4 ip_ratio=1.40 aq=1:1.00\n",
      "[aac @ 0x55ee7aef6fc0] Too many bits 8916.462585 > 6144 per frame requested, clamping to max\n",
      "Output #0, mp4, to '/mnt/g/song_artifacts/videos/mfcc-003.mp4':\n",
      "  Metadata:\n",
      "    encoder         : Lavf60.16.100\n",
      "  Stream #0:0: Video: h264 (avc1 / 0x31637661), yuv420p(tv, progressive), 640x480 [SAR 1:1 DAR 4:3], q=2-31, 5.36 fps, 17152 tbn\n",
      "    Metadata:\n",
      "      encoder         : Lavc60.31.102 libx264\n",
      "    Side data:\n",
      "      cpb: bitrate max/min/avg: 0/0/0 buffer size: 0 vbv_delay: N/A\n",
      "  Stream #0:1: Audio: aac (LC) (mp4a / 0x6134706D), 22050 Hz, mono, fltp, 132 kb/s\n",
      "    Metadata:\n",
      "      encoder         : Lavc60.31.102 aac\n",
      "[out#0/mp4 @ 0x55ee7ae3f080] video:301kB audio:196kB subtitle:0kB other streams:0kB global headers:0kB muxing overhead: 0.710959%\n",
      "frame=   75 fps=0.0 q=-1.0 Lsize=     501kB time=00:00:13.93 bitrate= 294.5kbits/s speed=45.8x    \n",
      "[libx264 @ 0x55ee7ae573c0] frame I:1     Avg QP:17.67  size: 10172\n",
      "[libx264 @ 0x55ee7ae573c0] frame P:68    Avg QP:19.74  size:  4034\n",
      "[libx264 @ 0x55ee7ae573c0] frame B:6     Avg QP:19.93  size:  3916\n",
      "[libx264 @ 0x55ee7ae573c0] consecutive B-frames: 84.0% 16.0%  0.0%  0.0%\n",
      "[libx264 @ 0x55ee7ae573c0] mb I  I16..4: 52.4% 28.1% 19.5%\n",
      "[libx264 @ 0x55ee7ae573c0] mb P  I16..4: 28.3%  8.1%  8.7%  P16..4:  5.6%  1.6%  0.3%  0.0%  0.0%    skip:47.4%\n",
      "[libx264 @ 0x55ee7ae573c0] mb B  I16..4: 21.5%  7.5%  3.8%  B16..8: 11.0%  3.0%  0.4%  direct: 5.1%  skip:47.6%  L0:55.0% L1:39.7% BI: 5.4%\n",
      "[libx264 @ 0x55ee7ae573c0] 8x8 transform intra:18.5% inter:65.7%\n",
      "[libx264 @ 0x55ee7ae573c0] coded y,uvDC,uvAC intra: 14.9% 64.4% 40.5% inter: 4.0% 7.8% 2.3%\n",
      "[libx264 @ 0x55ee7ae573c0] i16 v,h,dc,p: 20% 78%  1%  0%\n",
      "[libx264 @ 0x55ee7ae573c0] i8 v,h,dc,ddl,ddr,vr,hd,vl,hu: 31% 36% 28%  2%  0%  0%  0%  0%  2%\n",
      "[libx264 @ 0x55ee7ae573c0] i4 v,h,dc,ddl,ddr,vr,hd,vl,hu: 34% 49% 14%  0%  0%  0%  0%  0%  0%\n",
      "[libx264 @ 0x55ee7ae573c0] i8c dc,h,v,p: 15% 74% 10%  1%\n",
      "[libx264 @ 0x55ee7ae573c0] Weighted P-Frames: Y:0.0% UV:0.0%\n",
      "[libx264 @ 0x55ee7ae573c0] ref P L0: 33.5%  8.7% 32.7% 25.0%\n",
      "[libx264 @ 0x55ee7ae573c0] ref B L0: 54.6% 45.4%\n",
      "[libx264 @ 0x55ee7ae573c0] kb/s:176.08\n",
      "[aac @ 0x55ee7aef6fc0] Qavg: 62330.250\n"
     ]
    }
   ],
   "source": [
    "def extract_mels_and_generate_artifacts():\n",
    "    mels = utils.extract_mels(frames, signal)\n",
    "    utils.generate_mel_spec_images(upload_id, mels, artifacts_dir)\n",
    "    utils.generate_video_from_mel_spec_images(upload_id, frame_size, song_location, len(frames), artifacts_dir)\n",
    "    return mels\n",
    "\n",
    "def extract_power_spectrograms_and_generate_artifacts():\n",
    "    power_spectrograms = utils.extract_power_spectrograms(frames, signal)\n",
    "    utils.generate_power_spectr_spec_images(upload_id, power_spectrograms, artifacts_dir)\n",
    "    utils.generate_video_from_power_spetr_images(upload_id, frame_size, song_location, len(frames), artifacts_dir)\n",
    "    return power_spectrograms\n",
    "\n",
    "def extract_mfcc_and_generate_artifacts():\n",
    "    mfcc = utils.extract_mfccs(frames, signal)\n",
    "    utils.generate_mfcc_images(upload_id, mfcc, artifacts_dir)\n",
    "    utils.generate_video_from_mfcc_images(upload_id, frame_size, song_location, len(frames), artifacts_dir)\n",
    "    return mfcc\n",
    "\n",
    "mels = extract_mels_and_generate_artifacts()\n",
    "power_spectrograms = extract_power_spectrograms_and_generate_artifacts()\n",
    "mfcc = extract_mfcc_and_generate_artifacts()"
   ]
  },
  {
   "cell_type": "code",
   "execution_count": 6,
   "id": "56b0077c-4df9-4069-a0e0-2fbe4b843df0",
   "metadata": {},
   "outputs": [],
   "source": [
    "stacked = utils.stack_mfcc_power_spectro_mel_spectro(mfcc, mels, power_spectrograms)"
   ]
  },
  {
   "cell_type": "code",
   "execution_count": 7,
   "id": "e370b81c-8b18-4201-9e18-2babaa63a9c2",
   "metadata": {},
   "outputs": [
    {
     "data": {
      "text/plain": [
       "(3, 75, 20, 10)"
      ]
     },
     "execution_count": 7,
     "metadata": {},
     "output_type": "execute_result"
    }
   ],
   "source": [
    "stacked.shape"
   ]
  },
  {
   "cell_type": "code",
   "execution_count": 8,
   "id": "a11acba6-8f96-42f4-8051-f5519bbdc4a0",
   "metadata": {},
   "outputs": [],
   "source": [
    "import torch\n",
    "import torch.nn as nn\n",
    "import torch.nn.functional as F\n",
    "import numpy as np\n",
    "\n",
    "\n",
    "\n",
    "def make_predictions_return_percentages(model, stacked):\n",
    "    x = np.array(stacked).astype(np.float32)\n",
    "    normalized_x = (x - x.min()) / (x.max() - x.min())\n",
    "    \n",
    "    flattened = torch.from_numpy(x).reshape(-1)\n",
    "    output = model(flattened)\n",
    "    percentages = F.softmax(output, dim=0) * 100\n",
    "    return percentages"
   ]
  },
  {
   "cell_type": "code",
   "execution_count": 9,
   "id": "0e728461-695a-42ac-b530-1c61eb75e5d2",
   "metadata": {},
   "outputs": [
    {
     "data": {
      "text/plain": [
       "tensor([  0., 100.,   0.,   0.,   0.], grad_fn=<MulBackward0>)"
      ]
     },
     "execution_count": 9,
     "metadata": {},
     "output_type": "execute_result"
    }
   ],
   "source": [
    "torch.set_printoptions(precision=4, sci_mode=False)\n",
    "\n",
    "\n",
    "\n",
    "model = utils.MusicModel()\n",
    "model.load_state_dict(torch.load(f'{models_dir}{model_filename}'))\n",
    "model.eval()\n",
    "\n",
    "pred = make_predictions_return_percentages(model, stacked)\n",
    "\n",
    "pred"
   ]
  },
  {
   "cell_type": "code",
   "execution_count": null,
   "id": "d2a11ba4-2c94-40d0-b9bb-d2ca462f606b",
   "metadata": {},
   "outputs": [],
   "source": []
  },
  {
   "cell_type": "code",
   "execution_count": null,
   "id": "971928ed-52bc-4b4d-9706-c42591c1984d",
   "metadata": {},
   "outputs": [],
   "source": []
  }
 ],
 "metadata": {
  "kernelspec": {
   "display_name": "Python 3 (ipykernel)",
   "language": "python",
   "name": "python3"
  },
  "language_info": {
   "codemirror_mode": {
    "name": "ipython",
    "version": 3
   },
   "file_extension": ".py",
   "mimetype": "text/x-python",
   "name": "python",
   "nbconvert_exporter": "python",
   "pygments_lexer": "ipython3",
   "version": "3.12.3"
  }
 },
 "nbformat": 4,
 "nbformat_minor": 5
}
